HIERARCHY
ROOT Hips
{
	OFFSET 0.000000 0.000000 0.000000
	CHANNELS 6 Xposition Yposition Zposition Zrotation Yrotation Xrotation 
	JOINT LHipJoint
	{
		OFFSET 0.000000 0.000000 0.000000
		CHANNELS 3 Zrotation Yrotation Xrotation
		JOINT LeftUpLeg
		{
			OFFSET 1.363060 -1.794630 0.839290
			CHANNELS 3 Zrotation Yrotation Xrotation
			JOINT LeftLeg
			{
				OFFSET 2.448110 -6.726130 0.000000
				CHANNELS 3 Zrotation Yrotation Xrotation
				JOINT LeftFoot
				{
					OFFSET 2.562200 -7.039590 0.000000
					CHANNELS 3 Zrotation Yrotation Xrotation
					JOINT LeftToeBase
					{
						OFFSET 0.157640 -0.433110 2.322550
						CHANNELS 3 Zrotation Yrotation Xrotation
						End Site
						{
							OFFSET 0.000000 0.000000 0.000000
						}
					}
				}
			}
		}
	}
	JOINT RHipJoint
	{
		OFFSET 0.000000 0.000000 0.000000
		CHANNELS 3 Zrotation Yrotation Xrotation
		JOINT RightUpLeg
		{
			OFFSET -1.305520 -1.794630 0.839290
			CHANNELS 3 Zrotation Yrotation Xrotation
			JOINT RightLeg
			{
				OFFSET -2.542530 -6.985550 0.000000
				CHANNELS 3 Zrotation Yrotation Xrotation
				JOINT RightFoot
				{
					OFFSET -2.568260 -7.056230 0.000000
					CHANNELS 3 Zrotation Yrotation Xrotation
					JOINT RightToeBase
					{
						OFFSET -0.164730 -0.452590 2.363150
						CHANNELS 3 Zrotation Yrotation Xrotation
						End Site
						{
							OFFSET 0.000000 0.000000 0.000000
						}
					}
				}
			}
		}
	}
	JOINT LowerBack
	{
		OFFSET 0.000000 0.000000 0.000000
		CHANNELS 3 Zrotation Yrotation Xrotation
		JOINT Spine
		{
			OFFSET 0.028270 2.035590 -0.193380
			CHANNELS 3 Zrotation Yrotation Xrotation
			JOINT Spine1
			{
				OFFSET 0.056720 2.048850 -0.042750
				CHANNELS 3 Zrotation Yrotation Xrotation
				JOINT Neck
				{
					OFFSET 0.000000 0.000000 0.000000
					CHANNELS 3 Zrotation Yrotation Xrotation
					JOINT Neck1
					{
						OFFSET -0.054170 1.746240 0.172020
						CHANNELS 3 Zrotation Yrotation Xrotation
						JOINT Head
						{
							OFFSET 0.104070 1.761360 -0.123970
							CHANNELS 3 Zrotation Yrotation Xrotation
							End Site
							{
								OFFSET 0.000000 0.000000 0.000000
							}
						}
					}
				}
				JOINT LeftShoulder
				{
					OFFSET 0.000000 0.000000 0.000000
					CHANNELS 3 Zrotation Yrotation Xrotation
					JOINT LeftArm
					{
						OFFSET 3.362410 1.200890 -0.311210
						CHANNELS 3 Zrotation Yrotation Xrotation
						JOINT LeftForeArm
						{
							OFFSET 4.983000 -0.000000 -0.000000
							CHANNELS 3 Zrotation Yrotation Xrotation
							JOINT LeftHand
							{
								OFFSET 3.483560 -0.000000 -0.000000
								CHANNELS 3 Zrotation Yrotation Xrotation
								JOINT LeftFingerBase
								{
									OFFSET 0.000000 0.000000 0.000000
									CHANNELS 3 Zrotation Yrotation Xrotation
									JOINT LeftHandIndex1
									{
										OFFSET 0.715260 -0.000000 -0.000000
										CHANNELS 3 Zrotation Yrotation Xrotation
										End Site
										{
											OFFSET 0.000000 0.000000 0.000000
										}
									}
								}
								JOINT LThumb
								{
									OFFSET 0.000000 0.000000 0.000000
									CHANNELS 3 Zrotation Yrotation Xrotation
									End Site
									{
										OFFSET 0.000000 0.000000 0.000000
									}
								}
							}
						}
					}
				}
				JOINT RightShoulder
				{
					OFFSET 0.000000 0.000000 0.000000
					CHANNELS 3 Zrotation Yrotation Xrotation
					JOINT RightArm
					{
						OFFSET -3.136600 1.374050 -0.404650
						CHANNELS 3 Zrotation Yrotation Xrotation
						JOINT RightForeArm
						{
							OFFSET -5.241900 -0.000000 -0.000000
							CHANNELS 3 Zrotation Yrotation Xrotation
							JOINT RightHand
							{
								OFFSET -3.444170 -0.000000 -0.000000
								CHANNELS 3 Zrotation Yrotation Xrotation
								JOINT RightFingerBase
								{
									OFFSET 0.000000 0.000000 0.000000
									CHANNELS 3 Zrotation Yrotation Xrotation
									JOINT RightHandIndex1
									{
										OFFSET -0.622530 -0.000000 -0.000000
										CHANNELS 3 Zrotation Yrotation Xrotation
										End Site
										{
											OFFSET 0.000000 0.000000 0.000000
										}
									}
								}
								JOINT RThumb
								{
									OFFSET 0.000000 0.000000 0.000000
									CHANNELS 3 Zrotation Yrotation Xrotation
									End Site
									{
										OFFSET 0.000000 0.000000 0.000000
									}
								}
							}
						}
					}
				}
			}
		}
	}
}
MOTION
Frames: 10
Frame Time: 0.008333
10.432721 17.989783 26.344853 -178.317256 1.511521 179.712422 1.339386 4.252504 1.775259 -20.231881 -24.796901 1.977073 -3.276660 6.048545 18.040234 -5.258485 18.225717 -9.962251 1.183100 -6.903100 -19.428700 -5.220274 -4.100756 0.519016 30.423438 19.583085 5.445989 3.300172 -4.407252 15.917138 5.664985 -24.485382 -15.071180 -0.183600 -2.760000 7.611400 0.694783 -0.220703 6.675511 4.873705 0.035355 1.069580 -3.538699 -0.125965 -14.519839 -9.276838 -4.152808 -19.897080 18.210011 -7.450702 23.606123 3.621200 -2.208200 8.132700 -2.169874 -9.463395 1.825295 -93.421781 10.747425 21.930653 26.327551 -26.166521 -7.163523 1.516349 0.631035 11.344712 2.739112 -37.524807 -0.871900 -7.125000 0.000000 0.000000 -17.211300 -7.017500 20.059500 0.367695 10.857402 3.357734 89.269257 -10.201561 36.699708 -24.833588 27.920937 -7.169531 0.448243 -0.693998 26.354916 -20.000377 -55.074314 17.074200 7.125000 0.000000 0.000000 70.405300 -79.449800 -60.009100 
10.430174 17.991520 26.344159 -178.278060 1.460280 179.720305 1.340209 4.255198 1.774088 -20.193120 -24.789872 1.984623 -3.280442 6.031869 17.990837 -5.274501 18.253474 -9.839686 1.184000 -6.905600 -19.435900 -5.221739 -4.100639 0.518138 30.476929 19.670721 5.499049 3.307264 -4.401717 15.906113 5.664618 -24.524157 -15.237161 -0.200100 -2.880800 7.947100 0.745400 -0.228455 6.679732 4.876160 0.032521 1.037488 -3.564933 -0.132514 -14.512353 -9.206722 -4.143594 -19.789637 18.119759 -7.397931 23.317903 3.575800 -2.202000 8.027400 -2.169315 -9.470561 1.824459 -93.426282 10.750746 21.904965 26.351141 -26.187965 -7.169799 1.494843 0.646748 11.424008 3.660298 -37.522604 -1.462400 -7.125000 0.000000 0.000000 -16.733600 -7.137200 19.483700 0.370043 10.842267 3.359807 89.285579 -10.246297 36.789376 -25.191430 28.329381 -7.340970 0.455762 -0.683822 25.801619 -19.361556 -54.935318 16.508700 7.125000 0.000000 0.000000 69.786800 -79.174800 -59.136600 
10.430174 17.994531 26.349370 -178.299332 1.281281 179.803086 1.331650 4.235838 1.741148 -20.162213 -24.813975 1.882366 -3.281184 6.022628 17.935123 -5.307522 18.322837 -9.581149 1.274200 -7.154000 -20.172500 -5.215475 -4.088623 0.510118 30.439260 19.770261 5.438126 3.315893 -4.410104 15.917982 5.656509 -24.564970 -15.568284 -0.246700 -3.196100 8.825100 0.700274 -0.285563 6.743467 4.852687 -0.041316 0.858090 -3.522385 -0.161421 -14.523161 -9.238113 -4.101979 -19.601765 18.197165 -7.343166 23.043551 3.595800 -2.189900 7.917200 -2.168634 -9.481274 1.831135 -93.474510 10.759074 21.736871 26.374159 -26.211931 -7.172726 1.491911 0.643645 11.598017 3.814024 -37.355361 -1.555700 -7.125000 0.000000 0.000000 -16.644400 -6.996200 19.335000 0.386605 10.822273 3.370560 89.265860 -10.277300 37.077693 -25.485088 28.667462 -7.494474 0.459092 -0.668677 24.869109 -19.383321 -55.095480 16.551000 7.125000 0.000000 0.000000 70.660200 -79.205500 -59.995100 
10.423804 17.991172 26.337210 -178.295138 1.403031 179.707741 1.336885 4.262768 1.768342 -20.265340 -24.913700 2.073188 -3.288904 6.015935 17.938472 -5.344505 18.459425 -9.819937 1.286000 -7.185900 -20.267400 -5.214281 -4.108111 0.531383 30.436522 19.737321 5.559341 3.315897 -4.390485 15.895550 5.642489 -24.507050 -15.534312 -0.246900 -3.197400 8.828700 0.724561 -0.274539 6.581083 4.901826 -0.034167 1.059000 -3.540778 -0.159674 -14.427172 -9.113457 -5.140897 -19.564191 17.944721 -7.048136 23.234060 3.640900 -1.328800 7.949600 -2.184356 -9.481820 1.798007 -93.533809 10.702121 21.495474 26.386791 -26.241350 -7.180886 1.502185 0.634450 11.794636 3.523343 -37.383254 -1.370300 -7.125000 0.000000 0.000000 -16.797500 -6.985400 19.525800 0.352546 10.820862 3.356807 89.143521 -10.245955 37.679359 -25.843311 29.077590 -7.695267 0.463446 -0.643263 23.151151 -19.769453 -55.630566 16.967500 7.125000 0.000000 0.000000 73.532600 -79.416100 -62.955500 
10.427626 17.993836 26.348559 -178.221248 1.125532 179.741349 1.353162 4.240897 1.747330 -20.094238 -24.797258 1.883650 -3.276757 6.020251 17.947876 -5.228648 18.083101 -9.561315 1.252500 -7.095300 -19.997900 -5.197049 -4.095383 0.521477 30.512410 19.743761 5.545308 3.331270 -4.379543 15.863754 5.632199 -24.556607 -15.853508 -0.307900 -3.567400 9.862600 0.637348 -0.378718 6.787348 5.092716 -0.165246 0.895165 -3.491483 -0.219697 -14.538322 -9.223471 -5.102031 -19.515169 17.969439 -6.993267 23.150068 3.665700 -1.319700 7.911800 -2.199070 -9.472615 1.805446 -93.578682 10.676142 21.383411 26.407284 -26.279766 -7.199073 1.506801 0.630189 11.878790 3.257283 -37.535982 -1.206500 -7.125000 0.000000 0.000000 -16.941700 -7.098600 19.737800 0.341748 10.810965 3.374002 88.984407 -10.176430 38.117676 -26.177608 29.462785 -7.873474 0.477246 -0.625050 21.767639 -19.125732 -55.672396 16.428200 7.125000 0.000000 0.000000 73.787600 -79.167600 -62.937100 
10.423920 17.992909 26.342190 -178.191798 1.229795 179.638026 1.355684 4.267860 1.778049 -20.154188 -24.909862 2.090416 -3.286458 6.009458 17.952942 -5.211789 18.066892 -9.887686 1.116400 -6.712300 -18.865900 -5.195981 -4.109404 0.542925 30.558146 19.848102 5.691769 3.330431 -4.372630 15.880816 5.547014 -24.322916 -16.027838 -0.359800 -3.853300 10.664400 0.666019 -0.354859 6.718316 5.123455 -0.140796 1.093435 -3.523500 -0.208467 -14.517376 -9.223493 -5.058798 -19.437829 17.941502 -6.936082 22.898686 3.646700 -1.323400 7.826200 -2.190450 -9.486419 1.794840 -93.551632 10.665621 21.411060 26.460230 -26.344225 -7.228597 1.504723 0.630515 11.755785 3.165085 -37.596965 -1.150400 -7.125000 0.000000 0.000000 -16.991200 -7.143300 19.812200 0.329444 10.798597 3.355303 88.867325 -10.035518 38.430717 -26.372714 29.682788 -7.975611 0.494027 -0.616298 21.217274 -17.849398 -55.540438 15.334700 7.125000 0.000000 0.000000 73.191900 -78.661000 -61.828200 
10.421720 17.992446 26.340684 -178.195381 1.267442 179.603246 1.353392 4.274731 1.791740 -20.173265 -24.869653 2.135252 -3.288747 6.002602 17.943703 -5.202899 18.045504 -9.912731 1.121900 -6.728400 -18.913100 -5.204032 -4.115025 0.544939 30.572817 19.873538 5.748957 3.327450 -4.372984 15.892783 5.536394 -24.285847 -16.015759 -0.350900 -3.805800 10.531000 0.701278 -0.352653 6.728542 5.060513 -0.139411 1.132576 -3.535693 -0.206323 -14.526370 -9.212560 -4.998012 -19.356979 17.992766 -6.877923 22.643779 3.650100 -1.318700 7.738300 -2.176987 -9.498770 1.795301 -93.507542 10.673728 21.439811 26.472694 -26.357309 -7.232980 1.500609 0.633257 11.652965 3.240801 -37.588633 -1.199300 -7.125000 0.000000 0.000000 -16.951000 -7.143900 19.761300 0.334793 10.782476 3.345558 88.790350 -9.927549 38.886895 -26.473548 29.800249 -8.035616 0.499793 -0.608986 20.791512 -17.480037 -55.592617 15.033600 7.125000 0.000000 0.000000 73.500400 -78.524400 -61.977300 
10.418477 17.993141 26.339758 -178.231130 1.316130 179.636590 1.347426 4.265592 1.789368 -20.193329 -24.727733 2.072515 -3.287630 5.998788 17.917995 -5.249924 18.167958 -9.726093 1.297900 -7.217800 -20.362300 -5.211924 -4.112457 0.536692 30.518785 19.826102 5.689640 3.319570 -4.390364 15.936641 5.520374 -24.224712 -15.997047 -0.343700 -3.767200 10.422600 0.728125 -0.349670 6.728686 4.955658 -0.134055 1.059021 -3.538156 -0.201666 -14.512711 -9.213561 -4.923494 -19.268227 18.091091 -6.808731 22.421494 3.671500 -1.300800 7.658700 -2.164113 -9.512938 1.803532 -93.470670 10.698690 21.448245 26.460534 -26.342398 -7.227272 1.499572 0.635808 11.644004 3.317642 -37.641964 -1.249700 -7.125000 0.000000 0.000000 -16.914300 -7.206000 19.730700 0.350145 10.768050 3.343035 88.727834 -9.848324 39.417094 -26.506941 29.840857 -8.062512 0.499735 -0.602619 20.269555 -17.869639 -55.690624 15.374300 7.125000 0.000000 0.000000 73.968900 -78.683700 -62.596000 
10.415351 17.994183 26.337094 -178.317120 1.382109 179.680075 1.326061 4.263032 1.783373 -20.284158 -24.723305 2.105293 -3.298059 5.982966 17.853247 -5.359937 18.491434 -9.661831 1.523400 -7.793500 -22.088700 -5.224560 -4.107759 0.529919 30.418762 19.895956 5.607757 3.307236 -4.428533 16.029985 5.495794 -24.154462 -16.089569 -0.341300 -3.754000 10.385600 0.748147 -0.333796 6.683076 4.730845 -0.117087 0.985325 -3.511084 -0.187515 -14.469482 -9.078029 -4.892854 -19.179788 18.011085 -6.785405 22.229284 3.620600 -1.312400 7.587200 -2.141516 -9.524216 1.816424 -93.334615 10.749731 21.553423 26.467615 -26.339418 -7.226863 1.495474 0.639307 11.584589 3.476486 -37.646521 -1.351600 -7.125000 0.000000 0.000000 -16.832500 -7.230600 19.633100 0.373539 10.759193 3.336007 88.714472 -9.758422 39.790257 -26.499745 29.834182 -8.059678 0.501307 -0.600517 19.990768 -18.159687 -55.523701 15.587800 7.125000 0.000000 0.000000 73.116400 -78.777300 -61.879900 
10.414424 17.992446 26.335126 -178.392966 1.383819 179.711431 1.300610 4.257933 1.783052 -20.338301 -24.726489 2.094753 -3.308432 5.969619 17.801927 -5.410531 18.646655 -9.675963 1.579600 -7.929200 -22.499400 -5.238891 -4.101001 0.527659 30.351589 20.011432 5.550516 3.298734 -4.460611 16.103225 5.514424 -24.221092 -16.161829 -0.310100 -3.580200 9.898500 0.780338 -0.337445 6.576603 4.487006 -0.131076 1.001780 -3.475270 -0.187014 -14.403620 -8.894856 -4.913708 -19.190782 17.824448 -6.809562 22.167679 3.536000 -1.340100 7.569800 -2.119501 -9.531567 1.822317 -93.170528 10.753651 21.695690 26.449566 -26.301600 -7.206845 1.494388 0.640032 11.391352 3.477766 -37.495122 -1.346500 -7.125000 0.000000 0.000000 -16.824900 -7.081900 19.585300 0.395082 10.762459 3.325655 88.728071 -9.640561 40.018329 -26.528967 29.863284 -8.067259 0.502973 -0.602219 20.010987 -18.248888 -55.130792 15.592700 7.125000 0.000000 0.000000 71.132300 -78.760300 -59.973900 
